<?xml version="1.0" encoding="UTF-8"?>
<svg xmlns="http://www.w3.org/2000/svg" width="24" height="24" viewBox="0 0 24 24">
  <g stroke="#ffffff" fill="none" stroke-width="1.5" stroke-linecap="round" stroke-linejoin="round">
    <!-- Window frame -->
    <rect x="3" y="4" width="18" height="16" rx="2.5"/>
    <path d="M3 8h18"/>
    <!-- Title dots -->
  <circle cx="6" cy="6" r="0.8" fill="#ffffff" stroke="none"/>
  <circle cx="9" cy="6" r="0.8" fill="#ffffff" stroke="none"/>
  <circle cx="12" cy="6" r="0.8" fill="#ffffff" stroke="none"/>

    <!-- Code brackets -->
    <path d="M8 14l-2 2l2 2"/>
    <path d="M16 14l2 2l-2 2"/>

    <!-- Tiny gear -->
    <g transform="translate(12,15)">
      <circle cx="0" cy="0" r="1.1"/>
      <path d="M0 -2.2v0.8M0 2.2v-0.8M-2.2 0h0.8M2.2 0h-0.8M-1.6 -1.6l0.55 0.55M1.6 1.6l-0.55 -0.55M-1.6 1.6l0.55 -0.55M1.6 -1.6l-0.55 0.55"/>
    </g>
  </g>
</svg>
